<svg width="111" height="104" viewBox="0 0 111 104" fill="none" xmlns="http://www.w3.org/2000/svg">
<g clip-path="url(#clip0_4_1534)">
<path d="M110.833 103.813C109.381 103.191 107.718 102.535 105.875 101.898C99.9079 99.8053 91.956 97.7823 82.5011 97.3219C71.5574 96.7901 62.5256 98.5096 56.4345 100.196C37.7525 76.389 19.0521 52.5837 0.370117 28.7783C5.78803 27.8391 11.208 26.8979 16.6442 25.9587" stroke="#EFAD2B" stroke-width="2" stroke-miterlimit="10"/>
<path d="M26.154 14.6051C20.4168 14.4462 14.6979 14.2853 8.95868 14.1447C11.5273 18.0827 14.0756 22.0207 16.6442 25.9587C31.1652 48.2728 45.6862 70.6073 60.2051 92.9397C65.9789 92.3184 73.9817 92.0882 83.2617 93.8443C92.6292 95.6187 100.244 98.8457 105.857 101.898H105.875C107.699 102.873 109.456 102.926 110.837 103.813" stroke="#F26222" stroke-width="2" stroke-miterlimit="10"/>
<path d="M110.837 103.813C107.762 99.6749 99.8306 90.1955 85.9706 85.243C76.8574 81.9874 68.8058 81.9833 63.9675 82.3745C48.694 54.9999 33.4226 27.6252 18.1512 0.248534C25.4666 0.0101747 37.0386 0.566346 50.1014 5.38243C59.4932 8.84373 66.6825 13.4092 71.653 17.1578" stroke="#EF3A39" stroke-width="2" stroke-miterlimit="10"/>
</g>
<defs>
<clipPath id="clip0_4_1534">
<rect width="111" height="104" fill="white"/>
</clipPath>
</defs>
</svg>
