<svg width="350" height="250" viewBox="0 0 350 250" fill="none" xmlns="http://www.w3.org/2000/svg">
<g clip-path="url(#clip0_33_2041)">
<rect width="350" height="250" fill="#EF3A39"/>
<circle cx="7.5103" cy="110.317" r="25.5164" fill="#F37C7E" fill-opacity="0.3"/>
<circle cx="38.7886" cy="190.981" r="25.5164" fill="#F37C7E" fill-opacity="0.3"/>
<circle cx="130.154" cy="145.71" r="9.87732" fill="#F37C7E" fill-opacity="0.3"/>
<circle cx="314.53" cy="108.67" r="25.5164" fill="#F37C7E" fill-opacity="0.3"/>
<circle cx="233.866" cy="125.956" r="11.5235" fill="#F37C7E" fill-opacity="0.3"/>
<circle cx="350.834" cy="247.689" r="45.271" fill="#F37C7E" fill-opacity="0.3"/>
<circle cx="14.2536" cy="253.205" r="16.7694" stroke="#F37C7E" stroke-opacity="0.3" stroke-width="17.494"/>
<circle cx="198.472" cy="221.437" r="31.0694" stroke="#F37C7E" stroke-opacity="0.3" stroke-width="34.9881"/>
<circle cx="-26.5695" cy="1.75321" r="31.0694" stroke="#F37C7E" stroke-opacity="0.3" stroke-width="34.9881"/>
<mask id="mask0_33_2041" style="mask-type:alpha" maskUnits="userSpaceOnUse" x="93" y="20" width="77" height="78">
<circle cx="131.388" cy="58.8723" r="38.2746" fill="#F6A16D"/>
</mask>
<g mask="url(#mask0_33_2041)">
<path d="M19.8571 19.7746L98.8756 98.7931" stroke="#F37C7E" stroke-opacity="0.3" stroke-width="1.7494"/>
<path d="M26.4419 19.7746L105.46 98.7931" stroke="#F37C7E" stroke-opacity="0.3" stroke-width="1.7494"/>
<path d="M33.0267 19.7746L112.045 98.7931" stroke="#F37C7E" stroke-opacity="0.3" stroke-width="1.7494"/>
<path d="M39.6118 19.7746L118.63 98.7931" stroke="#F37C7E" stroke-opacity="0.3" stroke-width="1.7494"/>
<path d="M46.1967 19.7746L125.215 98.7931" stroke="#F37C7E" stroke-opacity="0.3" stroke-width="1.7494"/>
<path d="M52.7815 19.7746L131.8 98.7931" stroke="#F37C7E" stroke-opacity="0.3" stroke-width="1.7494"/>
<path d="M59.3663 19.7746L138.385 98.7931" stroke="#F37C7E" stroke-opacity="0.3" stroke-width="1.7494"/>
<path d="M65.9513 19.7746L144.97 98.7931" stroke="#F37C7E" stroke-opacity="0.3" stroke-width="1.7494"/>
<path d="M72.5361 19.7746L151.555 98.7931" stroke="#F37C7E" stroke-opacity="0.3" stroke-width="1.7494"/>
<path d="M79.121 19.7746L158.14 98.7931" stroke="#F37C7E" stroke-opacity="0.3" stroke-width="1.7494"/>
<path d="M85.7058 19.7746L164.724 98.7931" stroke="#F37C7E" stroke-opacity="0.3" stroke-width="1.7494"/>
<path d="M92.2909 19.7746L171.309 98.7931" stroke="#F37C7E" stroke-opacity="0.3" stroke-width="1.7494"/>
<path d="M98.8757 19.7746L177.894 98.7931" stroke="#F37C7E" stroke-opacity="0.3" stroke-width="1.7494"/>
<path d="M105.46 19.7746L184.479 98.7931" stroke="#F37C7E" stroke-opacity="0.3" stroke-width="1.7494"/>
<path d="M112.045 19.7746L191.064 98.7931" stroke="#F37C7E" stroke-opacity="0.3" stroke-width="1.7494"/>
<path d="M118.63 19.7746L197.649 98.7931" stroke="#F37C7E" stroke-opacity="0.3" stroke-width="1.7494"/>
<path d="M125.215 19.7746L204.234 98.7931" stroke="#F37C7E" stroke-opacity="0.3" stroke-width="1.7494"/>
<path d="M131.8 19.7746L210.818 98.7931" stroke="#F37C7E" stroke-opacity="0.3" stroke-width="1.7494"/>
<path d="M138.385 19.7746L217.403 98.7931" stroke="#F37C7E" stroke-opacity="0.3" stroke-width="1.7494"/>
<path d="M144.97 19.7746L223.988 98.7931" stroke="#F37C7E" stroke-opacity="0.3" stroke-width="1.7494"/>
<path d="M151.555 19.7746L230.573 98.7931" stroke="#F37C7E" stroke-opacity="0.3" stroke-width="1.7494"/>
</g>
<mask id="mask1_33_2041" style="mask-type:alpha" maskUnits="userSpaceOnUse" x="145" y="54" width="61" height="61">
<circle cx="175.836" cy="84.3887" r="30.0435" fill="#F6A16D" fill-opacity="0.7"/>
</mask>
<g mask="url(#mask1_33_2041)">
<path d="M88.29 53.6991L150.315 115.724" stroke="#F37C7E" stroke-opacity="0.3" stroke-width="1.7494"/>
<path d="M93.4589 53.6991L155.484 115.724" stroke="#F37C7E" stroke-opacity="0.3" stroke-width="1.7494"/>
<path d="M98.6279 53.6991L160.653 115.724" stroke="#F37C7E" stroke-opacity="0.3" stroke-width="1.7494"/>
<path d="M103.797 53.6991L165.822 115.724" stroke="#F37C7E" stroke-opacity="0.3" stroke-width="1.7494"/>
<path d="M108.965 53.6991L170.991 115.724" stroke="#F37C7E" stroke-opacity="0.3" stroke-width="1.7494"/>
<path d="M114.134 53.6991L176.159 115.724" stroke="#F37C7E" stroke-opacity="0.3" stroke-width="1.7494"/>
<path d="M119.303 53.6991L181.328 115.724" stroke="#F37C7E" stroke-opacity="0.3" stroke-width="1.7494"/>
<path d="M124.472 53.6991L186.497 115.724" stroke="#F37C7E" stroke-opacity="0.3" stroke-width="1.7494"/>
<path d="M129.641 53.6991L191.666 115.724" stroke="#F37C7E" stroke-opacity="0.3" stroke-width="1.7494"/>
<path d="M134.809 53.6991L196.834 115.724" stroke="#F37C7E" stroke-opacity="0.3" stroke-width="1.7494"/>
<path d="M139.978 53.6991L202.003 115.724" stroke="#F37C7E" stroke-opacity="0.3" stroke-width="1.7494"/>
<path d="M145.147 53.6991L207.172 115.724" stroke="#F37C7E" stroke-opacity="0.3" stroke-width="1.7494"/>
<path d="M150.316 53.6991L212.341 115.724" stroke="#F37C7E" stroke-opacity="0.3" stroke-width="1.7494"/>
<path d="M155.484 53.6991L217.51 115.724" stroke="#F37C7E" stroke-opacity="0.3" stroke-width="1.7494"/>
<path d="M160.653 53.6991L222.678 115.724" stroke="#F37C7E" stroke-opacity="0.3" stroke-width="1.7494"/>
<path d="M165.822 53.6991L227.847 115.724" stroke="#F37C7E" stroke-opacity="0.3" stroke-width="1.7494"/>
<path d="M170.991 53.6991L233.016 115.724" stroke="#F37C7E" stroke-opacity="0.3" stroke-width="1.7494"/>
<path d="M176.16 53.6991L238.185 115.724" stroke="#F37C7E" stroke-opacity="0.3" stroke-width="1.7494"/>
<path d="M181.328 53.6991L243.354 115.724" stroke="#F37C7E" stroke-opacity="0.3" stroke-width="1.7494"/>
<path d="M186.497 53.6991L248.522 115.724" stroke="#F37C7E" stroke-opacity="0.3" stroke-width="1.7494"/>
<path d="M191.666 53.6991L253.691 115.724" stroke="#F37C7E" stroke-opacity="0.3" stroke-width="1.7494"/>
</g>
<mask id="mask2_33_2041" style="mask-type:alpha" maskUnits="userSpaceOnUse" x="327" y="165" width="61" height="61">
<circle cx="357.744" cy="195.509" r="30.0435" fill="#F6A16D"/>
</mask>
<g mask="url(#mask2_33_2041)">
<path d="M270.198 164.819L332.223 226.844" stroke="#F37C7E" stroke-opacity="0.3" stroke-width="1.7494"/>
<path d="M275.366 164.819L337.392 226.844" stroke="#F37C7E" stroke-opacity="0.3" stroke-width="1.7494"/>
<path d="M280.535 164.819L342.561 226.844" stroke="#F37C7E" stroke-opacity="0.3" stroke-width="1.7494"/>
<path d="M285.704 164.819L347.729 226.844" stroke="#F37C7E" stroke-opacity="0.3" stroke-width="1.7494"/>
<path d="M290.873 164.819L352.898 226.844" stroke="#F37C7E" stroke-opacity="0.3" stroke-width="1.7494"/>
<path d="M296.042 164.819L358.067 226.844" stroke="#F37C7E" stroke-opacity="0.3" stroke-width="1.7494"/>
<path d="M301.21 164.819L363.236 226.844" stroke="#F37C7E" stroke-opacity="0.3" stroke-width="1.7494"/>
<path d="M306.379 164.819L368.404 226.844" stroke="#F37C7E" stroke-opacity="0.3" stroke-width="1.7494"/>
<path d="M311.548 164.819L373.573 226.844" stroke="#F37C7E" stroke-opacity="0.3" stroke-width="1.7494"/>
<path d="M316.717 164.819L378.742 226.844" stroke="#F37C7E" stroke-opacity="0.3" stroke-width="1.7494"/>
<path d="M321.885 164.819L383.911 226.844" stroke="#F37C7E" stroke-opacity="0.3" stroke-width="1.7494"/>
<path d="M327.054 164.819L389.08 226.844" stroke="#F37C7E" stroke-opacity="0.3" stroke-width="1.7494"/>
<path d="M332.223 164.819L394.248 226.844" stroke="#F37C7E" stroke-opacity="0.3" stroke-width="1.7494"/>
<path d="M337.392 164.819L399.417 226.844" stroke="#F37C7E" stroke-opacity="0.3" stroke-width="1.7494"/>
<path d="M342.561 164.819L404.586 226.844" stroke="#F37C7E" stroke-opacity="0.3" stroke-width="1.7494"/>
<path d="M347.729 164.819L409.755 226.844" stroke="#F37C7E" stroke-opacity="0.3" stroke-width="1.7494"/>
</g>
<mask id="mask3_33_2041" style="mask-type:alpha" maskUnits="userSpaceOnUse" x="162" y="186" width="72" height="72">
<circle cx="198.06" cy="221.848" r="18.3112" stroke="#F6A16D" stroke-width="34.9881"/>
</mask>
<g mask="url(#mask3_33_2041)">
<path d="M95.583 181.927L174.602 260.946" stroke="#F37C7E" stroke-opacity="0.3" stroke-width="1.7494"/>
<path d="M102.168 181.927L181.187 260.946" stroke="#F37C7E" stroke-opacity="0.3" stroke-width="1.7494"/>
<path d="M108.753 181.927L187.772 260.946" stroke="#F37C7E" stroke-opacity="0.3" stroke-width="1.7494"/>
<path d="M115.338 181.927L194.356 260.946" stroke="#F37C7E" stroke-opacity="0.3" stroke-width="1.7494"/>
<path d="M121.923 181.927L200.941 260.946" stroke="#F37C7E" stroke-opacity="0.3" stroke-width="1.7494"/>
<path d="M128.508 181.927L207.526 260.946" stroke="#F37C7E" stroke-opacity="0.3" stroke-width="1.7494"/>
<path d="M135.092 181.927L214.111 260.946" stroke="#F37C7E" stroke-opacity="0.3" stroke-width="1.7494"/>
<path d="M141.677 181.927L220.696 260.946" stroke="#F37C7E" stroke-opacity="0.3" stroke-width="1.7494"/>
<path d="M148.262 181.927L227.281 260.946" stroke="#F37C7E" stroke-opacity="0.3" stroke-width="1.7494"/>
<path d="M154.847 181.927L233.866 260.946" stroke="#F37C7E" stroke-opacity="0.3" stroke-width="1.7494"/>
<path d="M161.432 181.927L240.451 260.946" stroke="#F37C7E" stroke-opacity="0.3" stroke-width="1.7494"/>
<path d="M168.017 181.927L247.035 260.946" stroke="#F37C7E" stroke-opacity="0.3" stroke-width="1.7494"/>
<path d="M174.602 181.927L253.62 260.946" stroke="#F37C7E" stroke-opacity="0.3" stroke-width="1.7494"/>
<path d="M181.187 181.927L260.205 260.946" stroke="#F37C7E" stroke-opacity="0.3" stroke-width="1.7494"/>
<path d="M187.771 181.927L266.79 260.946" stroke="#F37C7E" stroke-opacity="0.3" stroke-width="1.7494"/>
<path d="M194.356 181.927L273.375 260.946" stroke="#F37C7E" stroke-opacity="0.3" stroke-width="1.7494"/>
<path d="M200.941 181.927L279.96 260.946" stroke="#F37C7E" stroke-opacity="0.3" stroke-width="1.7494"/>
<path d="M207.526 181.927L286.545 260.946" stroke="#F37C7E" stroke-opacity="0.3" stroke-width="1.7494"/>
<path d="M214.111 181.927L293.13 260.946" stroke="#F37C7E" stroke-opacity="0.3" stroke-width="1.7494"/>
<path d="M220.696 181.927L299.714 260.946" stroke="#F37C7E" stroke-opacity="0.3" stroke-width="1.7494"/>
</g>
<mask id="mask4_33_2041" style="mask-type:alpha" maskUnits="userSpaceOnUse" x="247" y="-15" width="72" height="72">
<circle cx="282.841" cy="21.0093" r="18.3112" stroke="#F6A16D" stroke-width="34.9881"/>
</mask>
<g mask="url(#mask4_33_2041)">
<path d="M180.363 -18.9116L259.382 60.107" stroke="#F37C7E" stroke-opacity="0.3" stroke-width="1.7494"/>
<path d="M186.948 -18.9116L265.967 60.107" stroke="#F37C7E" stroke-opacity="0.3" stroke-width="1.7494"/>
<path d="M193.533 -18.9116L272.552 60.107" stroke="#F37C7E" stroke-opacity="0.3" stroke-width="1.7494"/>
<path d="M200.118 -18.9116L279.137 60.107" stroke="#F37C7E" stroke-opacity="0.3" stroke-width="1.7494"/>
<path d="M206.703 -18.9116L285.721 60.107" stroke="#F37C7E" stroke-opacity="0.3" stroke-width="1.7494"/>
<path d="M213.288 -18.9116L292.307 60.107" stroke="#F37C7E" stroke-opacity="0.3" stroke-width="1.7494"/>
<path d="M219.873 -18.9116L298.891 60.107" stroke="#F37C7E" stroke-opacity="0.3" stroke-width="1.7494"/>
<path d="M226.458 -18.9116L305.476 60.107" stroke="#F37C7E" stroke-opacity="0.3" stroke-width="1.7494"/>
<path d="M233.042 -18.9116L312.061 60.107" stroke="#F37C7E" stroke-opacity="0.3" stroke-width="1.7494"/>
<path d="M239.627 -18.9116L318.646 60.107" stroke="#F37C7E" stroke-opacity="0.3" stroke-width="1.7494"/>
<path d="M246.212 -18.9116L325.231 60.107" stroke="#F37C7E" stroke-opacity="0.3" stroke-width="1.7494"/>
<path d="M252.797 -18.9116L331.816 60.107" stroke="#F37C7E" stroke-opacity="0.3" stroke-width="1.7494"/>
<path d="M259.382 -18.9116L338.4 60.107" stroke="#F37C7E" stroke-opacity="0.3" stroke-width="1.7494"/>
<path d="M265.967 -18.9116L344.986 60.107" stroke="#F37C7E" stroke-opacity="0.3" stroke-width="1.7494"/>
<path d="M272.552 -18.9116L351.57 60.107" stroke="#F37C7E" stroke-opacity="0.3" stroke-width="1.7494"/>
<path d="M279.137 -18.9116L358.155 60.107" stroke="#F37C7E" stroke-opacity="0.3" stroke-width="1.7494"/>
<path d="M285.721 -18.9116L364.74 60.107" stroke="#F37C7E" stroke-opacity="0.3" stroke-width="1.7494"/>
<path d="M292.306 -18.9116L371.325 60.107" stroke="#F37C7E" stroke-opacity="0.3" stroke-width="1.7494"/>
<path d="M298.891 -18.9116L377.91 60.107" stroke="#F37C7E" stroke-opacity="0.3" stroke-width="1.7494"/>
<path d="M305.476 -18.9116L384.495 60.107" stroke="#F37C7E" stroke-opacity="0.3" stroke-width="1.7494"/>
</g>
<g clip-path="url(#clip1_33_2041)">
<path d="M100.883 105.103H171.73V168.005C171.73 169.85 170.224 171.356 168.379 171.356H104.234C102.389 171.356 100.883 169.85 100.883 168.005V105.103Z" stroke="white" stroke-width="3.97748" stroke-linecap="round" stroke-linejoin="round"/>
<path d="M104.234 77.0527H168.379C170.224 77.0527 171.73 78.5587 171.73 80.4036V105.103H100.883V80.4036C100.883 78.5587 102.389 77.0527 104.234 77.0527Z" stroke="white" stroke-width="3.97748" stroke-linecap="round" stroke-linejoin="round"/>
<path d="M120.424 115.156H110.747C109.888 115.156 109.191 115.852 109.191 116.712V121.582C109.191 122.441 109.888 123.138 110.747 123.138H120.424C121.283 123.138 121.98 122.441 121.98 121.582V116.712C121.98 115.852 121.283 115.156 120.424 115.156Z" stroke="white" stroke-width="3.97748" stroke-linecap="round" stroke-linejoin="round"/>
<path d="M141.144 115.156H131.468C130.608 115.156 129.912 115.852 129.912 116.712V121.582C129.912 122.441 130.608 123.138 131.468 123.138H141.144C142.004 123.138 142.7 122.441 142.7 121.582V116.712C142.7 115.852 142.004 115.156 141.144 115.156Z" stroke="white" stroke-width="3.97748" stroke-linecap="round" stroke-linejoin="round"/>
<path d="M161.865 115.156H152.189C151.329 115.156 150.632 115.852 150.632 116.712V121.582C150.632 122.441 151.329 123.138 152.189 123.138H161.865C162.724 123.138 163.421 122.441 163.421 121.582V116.712C163.421 115.852 162.724 115.156 161.865 115.156Z" stroke="white" stroke-width="3.97748" stroke-linecap="round" stroke-linejoin="round"/>
<path d="M120.424 134.232H110.747C109.888 134.232 109.191 134.929 109.191 135.789V140.658C109.191 141.518 109.888 142.214 110.747 142.214H120.424C121.283 142.214 121.98 141.518 121.98 140.658V135.789C121.98 134.929 121.283 134.232 120.424 134.232Z" stroke="white" stroke-width="3.97748" stroke-linecap="round" stroke-linejoin="round"/>
<path d="M141.144 134.232H131.468C130.608 134.232 129.912 134.929 129.912 135.789V140.658C129.912 141.518 130.608 142.214 131.468 142.214H141.144C142.004 142.214 142.7 141.518 142.7 140.658V135.789C142.7 134.929 142.004 134.232 141.144 134.232Z" stroke="white" stroke-width="3.97748" stroke-linecap="round" stroke-linejoin="round"/>
<path d="M120.424 153.309H110.747C109.888 153.309 109.191 154.006 109.191 154.865V159.735C109.191 160.594 109.888 161.291 110.747 161.291H120.424C121.283 161.291 121.98 160.594 121.98 159.735V154.865C121.98 154.006 121.283 153.309 120.424 153.309Z" stroke="white" stroke-width="3.97748" stroke-linecap="round" stroke-linejoin="round"/>
<path d="M141.144 153.309H131.468C130.608 153.309 129.912 154.006 129.912 154.865V159.735C129.912 160.594 130.608 161.291 131.468 161.291H141.144C142.004 161.291 142.7 160.594 142.7 159.735V154.865C142.7 154.006 142.004 153.309 141.144 153.309Z" stroke="white" stroke-width="3.97748" stroke-linecap="round" stroke-linejoin="round"/>
<path d="M161.865 134.232H152.189C151.329 134.232 150.632 134.929 150.632 135.789V159.735C150.632 160.594 151.329 161.291 152.189 161.291H161.865C162.724 161.291 163.421 160.594 163.421 159.735V135.789C163.421 134.929 162.724 134.232 161.865 134.232Z" stroke="white" stroke-width="3.97748" stroke-linecap="round" stroke-linejoin="round"/>
<path d="M115.203 85.223H112.743C111.253 85.223 110.044 86.4311 110.044 87.9213V94.2216C110.044 95.7119 111.253 96.92 112.743 96.92H115.203C116.693 96.92 117.901 95.7119 117.901 94.2216V87.9213C117.901 86.4311 116.693 85.223 115.203 85.223Z" stroke="white" stroke-width="3.97748" stroke-linecap="round" stroke-linejoin="round"/>
<path d="M129.422 85.223H126.962C125.472 85.223 124.264 86.4311 124.264 87.9213V94.2216C124.264 95.7119 125.472 96.92 126.962 96.92H129.422C130.913 96.92 132.121 95.7119 132.121 94.2216V87.9213C132.121 86.4311 130.913 85.223 129.422 85.223Z" stroke="white" stroke-width="3.97748" stroke-linecap="round" stroke-linejoin="round"/>
</g>
<g clip-path="url(#clip2_33_2041)">
<path d="M222.151 88.2242C225.806 88.2242 228.769 85.2613 228.769 81.6063C228.769 77.9514 225.806 74.9885 222.151 74.9885C218.496 74.9885 215.533 77.9514 215.533 81.6063C215.533 85.2613 218.496 88.2242 222.151 88.2242Z" stroke="white" stroke-width="2.30222" stroke-miterlimit="10"/>
<path d="M226.64 86.4734V113.577H217.669V86.4734" stroke="white" stroke-width="2.30222" stroke-linejoin="round"/>
<path d="M217.669 76.7465V70.5718C217.669 68.0946 219.674 66.0897 222.151 66.0897C224.628 66.0897 226.633 68.0946 226.633 70.5718V76.7392" stroke="white" stroke-width="2.30222" stroke-linejoin="round"/>
<path d="M202.203 113.577H242.106C244.046 113.577 245.622 115.153 245.622 117.093V119.693H198.687V117.093C198.687 115.153 200.264 113.577 202.203 113.577Z" stroke="white" stroke-width="2.30222" stroke-linejoin="round"/>
<path d="M228.355 79.2817H248.477C249.763 79.2817 250.809 80.3278 250.809 81.6136C250.809 82.2529 250.547 82.8413 250.126 83.2626C249.698 83.6839 249.124 83.9455 248.477 83.9455H228.355" stroke="white" stroke-width="2.30222" stroke-linejoin="round"/>
<path d="M215.955 83.9382H195.832C194.539 83.9382 193.5 82.8921 193.5 81.6063C193.5 80.9671 193.762 80.3787 194.183 79.9573C194.605 79.536 195.186 79.2745 195.832 79.2745H215.955" stroke="white" stroke-width="2.30222" stroke-linejoin="round"/>
<path d="M211 97.2392C211 101.867 207.252 105.615 202.624 105.615C197.997 105.615 194.249 101.867 194.249 97.2392H211Z" stroke="white" stroke-width="2.30222" stroke-linejoin="round"/>
<path d="M209.533 97.2392L202.625 83.9382L195.709 97.2392" stroke="white" stroke-width="2.30222" stroke-linejoin="round"/>
<path d="M250.061 97.2392C250.061 101.867 246.312 105.615 241.685 105.615C237.058 105.615 233.309 101.867 233.309 97.2392H250.061Z" stroke="white" stroke-width="2.30222" stroke-linejoin="round"/>
<path d="M248.593 97.2392L241.685 83.9382L234.776 97.2392" stroke="white" stroke-width="2.30222" stroke-linejoin="round"/>
<path d="M222.151 84.4394C223.716 84.4394 224.984 83.171 224.984 81.6063C224.984 80.0416 223.716 78.7732 222.151 78.7732C220.586 78.7732 219.318 80.0416 219.318 81.6063C219.318 83.171 220.586 84.4394 222.151 84.4394Z" stroke="white" stroke-width="2.30222" stroke-linejoin="round"/>
<path d="M202.625 79.2817V76.1217" stroke="white" stroke-width="2.30222" stroke-linecap="round" stroke-linejoin="round"/>
<path d="M241.685 79.2817V76.1217" stroke="white" stroke-width="2.30222" stroke-linecap="round" stroke-linejoin="round"/>
<path d="M222.151 95.4667V106.341" stroke="white" stroke-width="2.30222" stroke-linecap="round" stroke-linejoin="round"/>
</g>
<g clip-path="url(#clip3_33_2041)">
<path d="M220.074 150.632C225.767 150.632 230.382 146.017 230.382 140.324C230.382 134.631 225.767 130.016 220.074 130.016C214.38 130.016 209.765 134.631 209.765 140.324C209.765 146.017 214.38 150.632 220.074 150.632Z" stroke="white" stroke-width="2.30222" stroke-linecap="round" stroke-linejoin="round"/>
<path d="M241.22 150.632H242.513C245.339 150.632 247.642 152.928 247.642 155.768V162.117" stroke="white" stroke-width="2.30222" stroke-linecap="round" stroke-linejoin="round"/>
<path d="M230.076 137.847H236.091C238.924 137.847 241.22 140.15 241.22 142.976V150.632H204.252C200.721 150.632 197.859 147.77 197.859 144.24C197.859 142.482 198.571 140.876 199.733 139.721C200.888 138.566 202.486 137.847 204.252 137.847H210.07" stroke="white" stroke-width="2.30222" stroke-linecap="round" stroke-linejoin="round"/>
<path d="M247.642 172.418V178.782C247.642 181.615 245.346 183.91 242.513 183.91H202.988C200.155 183.91 197.859 181.615 197.859 178.782V144.741" stroke="white" stroke-width="2.30222" stroke-linecap="round" stroke-linejoin="round"/>
<path d="M238.009 162.117H248.07C248.76 162.117 249.313 162.677 249.313 163.359V171.176C249.313 171.866 248.753 172.418 248.07 172.418H238.009C235.169 172.418 232.859 170.108 232.859 167.268C232.859 164.427 235.169 162.117 238.009 162.117Z" stroke="white" stroke-width="2.30222" stroke-linecap="round" stroke-linejoin="round"/>
<path d="M237.74 167.275H242.469" stroke="white" stroke-width="2.30222" stroke-linecap="round" stroke-linejoin="round"/>
<path d="M197.859 177.133H220.073" stroke="white" stroke-width="2.30222" stroke-linecap="round" stroke-linejoin="round"/>
<path d="M226.677 177.133H231.587" stroke="white" stroke-width="2.30222" stroke-linecap="round" stroke-linejoin="round"/>
<path d="M220.015 140.836C221.9 140.836 223.428 139.309 223.428 137.424C223.428 135.539 221.9 134.011 220.015 134.011C218.131 134.011 216.603 135.539 216.603 137.424C216.603 139.309 218.131 140.836 220.015 140.836Z" stroke="white" stroke-width="1.77876" stroke-linejoin="round"/>
<path d="M218.09 140.836H221.94C223.68 140.836 225.1 142.251 225.1 143.996V145.725H214.93V143.996C214.93 142.256 216.345 140.836 218.09 140.836Z" stroke="white" stroke-width="1.77876" stroke-linejoin="round"/>
</g>
</g>
<defs>
<clipPath id="clip0_33_2041">
<rect width="350" height="250" fill="white"/>
</clipPath>
<clipPath id="clip1_33_2041">
<rect width="74.6122" height="98.0689" fill="white" transform="translate(99 75.1701)"/>
</clipPath>
<clipPath id="clip2_33_2041">
<rect width="59.4879" height="55.783" fill="white" transform="translate(192.411 65)"/>
</clipPath>
<clipPath id="clip3_33_2041">
<rect width="53.6328" height="56.0736" fill="white" transform="translate(196.769 128.926)"/>
</clipPath>
</defs>
</svg>
