<svg width="350" height="250" viewBox="0 0 350 250" fill="none" xmlns="http://www.w3.org/2000/svg">
<g clip-path="url(#clip0_35_2189)">
<rect width="350" height="250" fill="#F26222"/>
<circle cx="7.51055" cy="110.317" r="25.5164" fill="#F6A16D" fill-opacity="0.3"/>
<circle cx="38.7886" cy="190.981" r="25.5164" fill="#F6A16D" fill-opacity="0.3"/>
<circle cx="130.154" cy="145.71" r="9.87732" fill="#F6A16D" fill-opacity="0.3"/>
<circle cx="314.531" cy="108.67" r="25.5164" fill="#F6A16D" fill-opacity="0.3"/>
<circle cx="233.866" cy="125.956" r="11.5235" fill="#F6A16D" fill-opacity="0.3"/>
<circle cx="350.835" cy="247.689" r="45.271" fill="#F6A16D" fill-opacity="0.3"/>
<circle cx="14.2537" cy="253.205" r="16.7694" stroke="#F6A16D" stroke-opacity="0.3" stroke-width="17.494"/>
<circle cx="198.472" cy="221.437" r="31.0694" stroke="#F6A16D" stroke-opacity="0.3" stroke-width="34.9881"/>
<circle cx="-26.5693" cy="1.75321" r="31.0694" stroke="#F6A16D" stroke-opacity="0.3" stroke-width="34.9881"/>
<mask id="mask0_35_2189" style="mask-type:alpha" maskUnits="userSpaceOnUse" x="93" y="20" width="77" height="78">
<circle cx="131.388" cy="58.8723" r="38.2746" fill="#F6A16D"/>
</mask>
<g mask="url(#mask0_35_2189)">
<path d="M19.8569 19.7746L98.8755 98.7931" stroke="#F6A16D" stroke-opacity="0.3" stroke-width="1.7494"/>
<path d="M26.4419 19.7746L105.46 98.7931" stroke="#F6A16D" stroke-opacity="0.3" stroke-width="1.7494"/>
<path d="M33.0266 19.7746L112.045 98.7931" stroke="#F6A16D" stroke-opacity="0.3" stroke-width="1.7494"/>
<path d="M39.6118 19.7746L118.63 98.7931" stroke="#F6A16D" stroke-opacity="0.3" stroke-width="1.7494"/>
<path d="M46.1965 19.7746L125.215 98.7931" stroke="#F6A16D" stroke-opacity="0.3" stroke-width="1.7494"/>
<path d="M52.7815 19.7746L131.8 98.7931" stroke="#F6A16D" stroke-opacity="0.3" stroke-width="1.7494"/>
<path d="M59.3662 19.7746L138.385 98.7931" stroke="#F6A16D" stroke-opacity="0.3" stroke-width="1.7494"/>
<path d="M65.9512 19.7746L144.97 98.7931" stroke="#F6A16D" stroke-opacity="0.3" stroke-width="1.7494"/>
<path d="M72.5361 19.7746L151.555 98.7931" stroke="#F6A16D" stroke-opacity="0.3" stroke-width="1.7494"/>
<path d="M79.1208 19.7746L158.139 98.7931" stroke="#F6A16D" stroke-opacity="0.3" stroke-width="1.7494"/>
<path d="M85.7058 19.7746L164.724 98.7931" stroke="#F6A16D" stroke-opacity="0.3" stroke-width="1.7494"/>
<path d="M92.2908 19.7746L171.309 98.7931" stroke="#F6A16D" stroke-opacity="0.3" stroke-width="1.7494"/>
<path d="M98.8757 19.7746L177.894 98.7931" stroke="#F6A16D" stroke-opacity="0.3" stroke-width="1.7494"/>
<path d="M105.46 19.7746L184.479 98.7931" stroke="#F6A16D" stroke-opacity="0.3" stroke-width="1.7494"/>
<path d="M112.045 19.7746L191.064 98.7931" stroke="#F6A16D" stroke-opacity="0.3" stroke-width="1.7494"/>
<path d="M118.63 19.7746L197.649 98.7931" stroke="#F6A16D" stroke-opacity="0.3" stroke-width="1.7494"/>
<path d="M125.215 19.7746L204.234 98.7931" stroke="#F6A16D" stroke-opacity="0.3" stroke-width="1.7494"/>
<path d="M131.8 19.7746L210.819 98.7931" stroke="#F6A16D" stroke-opacity="0.3" stroke-width="1.7494"/>
<path d="M138.385 19.7746L217.403 98.7931" stroke="#F6A16D" stroke-opacity="0.3" stroke-width="1.7494"/>
<path d="M144.97 19.7746L223.988 98.7931" stroke="#F6A16D" stroke-opacity="0.3" stroke-width="1.7494"/>
<path d="M151.555 19.7746L230.573 98.7931" stroke="#F6A16D" stroke-opacity="0.3" stroke-width="1.7494"/>
</g>
<mask id="mask1_35_2189" style="mask-type:alpha" maskUnits="userSpaceOnUse" x="145" y="54" width="61" height="61">
<circle cx="175.836" cy="84.3887" r="30.0435" fill="#F6A16D" fill-opacity="0.7"/>
</mask>
<g mask="url(#mask1_35_2189)">
<path d="M88.2903 53.6991L150.316 115.724" stroke="#F6A16D" stroke-opacity="0.3" stroke-width="1.7494"/>
<path d="M93.459 53.6991L155.484 115.724" stroke="#F6A16D" stroke-opacity="0.3" stroke-width="1.7494"/>
<path d="M98.6282 53.6991L160.653 115.724" stroke="#F6A16D" stroke-opacity="0.3" stroke-width="1.7494"/>
<path d="M103.797 53.6991L165.822 115.724" stroke="#F6A16D" stroke-opacity="0.3" stroke-width="1.7494"/>
<path d="M108.965 53.6991L170.991 115.724" stroke="#F6A16D" stroke-opacity="0.3" stroke-width="1.7494"/>
<path d="M114.134 53.6991L176.159 115.724" stroke="#F6A16D" stroke-opacity="0.3" stroke-width="1.7494"/>
<path d="M119.303 53.6991L181.329 115.724" stroke="#F6A16D" stroke-opacity="0.3" stroke-width="1.7494"/>
<path d="M124.472 53.6991L186.497 115.724" stroke="#F6A16D" stroke-opacity="0.3" stroke-width="1.7494"/>
<path d="M129.641 53.6991L191.666 115.724" stroke="#F6A16D" stroke-opacity="0.3" stroke-width="1.7494"/>
<path d="M134.809 53.6991L196.835 115.724" stroke="#F6A16D" stroke-opacity="0.3" stroke-width="1.7494"/>
<path d="M139.978 53.6991L202.003 115.724" stroke="#F6A16D" stroke-opacity="0.3" stroke-width="1.7494"/>
<path d="M145.147 53.6991L207.172 115.724" stroke="#F6A16D" stroke-opacity="0.3" stroke-width="1.7494"/>
<path d="M150.316 53.6991L212.341 115.724" stroke="#F6A16D" stroke-opacity="0.3" stroke-width="1.7494"/>
<path d="M155.484 53.6991L217.51 115.724" stroke="#F6A16D" stroke-opacity="0.3" stroke-width="1.7494"/>
<path d="M160.653 53.6991L222.678 115.724" stroke="#F6A16D" stroke-opacity="0.3" stroke-width="1.7494"/>
<path d="M165.822 53.6991L227.847 115.724" stroke="#F6A16D" stroke-opacity="0.3" stroke-width="1.7494"/>
<path d="M170.991 53.6991L233.016 115.724" stroke="#F6A16D" stroke-opacity="0.3" stroke-width="1.7494"/>
<path d="M176.16 53.6991L238.185 115.724" stroke="#F6A16D" stroke-opacity="0.3" stroke-width="1.7494"/>
<path d="M181.328 53.6991L243.354 115.724" stroke="#F6A16D" stroke-opacity="0.3" stroke-width="1.7494"/>
<path d="M186.497 53.6991L248.522 115.724" stroke="#F6A16D" stroke-opacity="0.3" stroke-width="1.7494"/>
<path d="M191.666 53.6991L253.691 115.724" stroke="#F6A16D" stroke-opacity="0.3" stroke-width="1.7494"/>
</g>
<mask id="mask2_35_2189" style="mask-type:alpha" maskUnits="userSpaceOnUse" x="327" y="165" width="61" height="61">
<circle cx="357.744" cy="195.509" r="30.0435" fill="#F6A16D"/>
</mask>
<g mask="url(#mask2_35_2189)">
<path d="M270.198 164.819L332.223 226.844" stroke="#F6A16D" stroke-opacity="0.3" stroke-width="1.7494"/>
<path d="M275.366 164.819L337.392 226.844" stroke="#F6A16D" stroke-opacity="0.3" stroke-width="1.7494"/>
<path d="M280.535 164.819L342.561 226.844" stroke="#F6A16D" stroke-opacity="0.3" stroke-width="1.7494"/>
<path d="M285.704 164.819L347.729 226.844" stroke="#F6A16D" stroke-opacity="0.3" stroke-width="1.7494"/>
<path d="M290.873 164.819L352.898 226.844" stroke="#F6A16D" stroke-opacity="0.3" stroke-width="1.7494"/>
<path d="M296.042 164.819L358.067 226.844" stroke="#F6A16D" stroke-opacity="0.3" stroke-width="1.7494"/>
<path d="M301.21 164.819L363.236 226.844" stroke="#F6A16D" stroke-opacity="0.3" stroke-width="1.7494"/>
<path d="M306.379 164.819L368.404 226.844" stroke="#F6A16D" stroke-opacity="0.3" stroke-width="1.7494"/>
<path d="M311.548 164.819L373.573 226.844" stroke="#F6A16D" stroke-opacity="0.3" stroke-width="1.7494"/>
<path d="M316.717 164.819L378.742 226.844" stroke="#F6A16D" stroke-opacity="0.3" stroke-width="1.7494"/>
<path d="M321.885 164.819L383.911 226.844" stroke="#F6A16D" stroke-opacity="0.3" stroke-width="1.7494"/>
<path d="M327.054 164.819L389.08 226.844" stroke="#F6A16D" stroke-opacity="0.3" stroke-width="1.7494"/>
<path d="M332.223 164.819L394.248 226.844" stroke="#F6A16D" stroke-opacity="0.3" stroke-width="1.7494"/>
<path d="M337.392 164.819L399.417 226.844" stroke="#F6A16D" stroke-opacity="0.3" stroke-width="1.7494"/>
<path d="M342.561 164.819L404.586 226.844" stroke="#F6A16D" stroke-opacity="0.3" stroke-width="1.7494"/>
<path d="M347.729 164.819L409.755 226.844" stroke="#F6A16D" stroke-opacity="0.3" stroke-width="1.7494"/>
</g>
<mask id="mask3_35_2189" style="mask-type:alpha" maskUnits="userSpaceOnUse" x="162" y="186" width="72" height="72">
<circle cx="198.06" cy="221.848" r="18.3112" stroke="#F6A16D" stroke-width="34.9881"/>
</mask>
<g mask="url(#mask3_35_2189)">
<path d="M95.5833 181.927L174.602 260.946" stroke="#F6A16D" stroke-opacity="0.3" stroke-width="1.7494"/>
<path d="M102.168 181.927L181.187 260.946" stroke="#F6A16D" stroke-opacity="0.3" stroke-width="1.7494"/>
<path d="M108.753 181.927L187.772 260.946" stroke="#F6A16D" stroke-opacity="0.3" stroke-width="1.7494"/>
<path d="M115.338 181.927L194.356 260.946" stroke="#F6A16D" stroke-opacity="0.3" stroke-width="1.7494"/>
<path d="M121.923 181.927L200.941 260.946" stroke="#F6A16D" stroke-opacity="0.3" stroke-width="1.7494"/>
<path d="M128.508 181.927L207.526 260.946" stroke="#F6A16D" stroke-opacity="0.3" stroke-width="1.7494"/>
<path d="M135.093 181.927L214.111 260.946" stroke="#F6A16D" stroke-opacity="0.3" stroke-width="1.7494"/>
<path d="M141.677 181.927L220.696 260.946" stroke="#F6A16D" stroke-opacity="0.3" stroke-width="1.7494"/>
<path d="M148.262 181.927L227.281 260.946" stroke="#F6A16D" stroke-opacity="0.3" stroke-width="1.7494"/>
<path d="M154.847 181.927L233.866 260.946" stroke="#F6A16D" stroke-opacity="0.3" stroke-width="1.7494"/>
<path d="M161.432 181.927L240.451 260.946" stroke="#F6A16D" stroke-opacity="0.3" stroke-width="1.7494"/>
<path d="M168.017 181.927L247.035 260.946" stroke="#F6A16D" stroke-opacity="0.3" stroke-width="1.7494"/>
<path d="M174.602 181.927L253.62 260.946" stroke="#F6A16D" stroke-opacity="0.3" stroke-width="1.7494"/>
<path d="M181.187 181.927L260.205 260.946" stroke="#F6A16D" stroke-opacity="0.3" stroke-width="1.7494"/>
<path d="M187.772 181.927L266.79 260.946" stroke="#F6A16D" stroke-opacity="0.3" stroke-width="1.7494"/>
<path d="M194.356 181.927L273.375 260.946" stroke="#F6A16D" stroke-opacity="0.3" stroke-width="1.7494"/>
<path d="M200.941 181.927L279.96 260.946" stroke="#F6A16D" stroke-opacity="0.3" stroke-width="1.7494"/>
<path d="M207.526 181.927L286.545 260.946" stroke="#F6A16D" stroke-opacity="0.3" stroke-width="1.7494"/>
<path d="M214.111 181.927L293.13 260.946" stroke="#F6A16D" stroke-opacity="0.3" stroke-width="1.7494"/>
<path d="M220.696 181.927L299.714 260.946" stroke="#F6A16D" stroke-opacity="0.3" stroke-width="1.7494"/>
</g>
<mask id="mask4_35_2189" style="mask-type:alpha" maskUnits="userSpaceOnUse" x="247" y="-15" width="72" height="72">
<circle cx="282.841" cy="21.0093" r="18.3112" stroke="#F6A16D" stroke-width="34.9881"/>
</mask>
<g mask="url(#mask4_35_2189)">
<path d="M180.364 -18.9116L259.382 60.107" stroke="#F6A16D" stroke-opacity="0.3" stroke-width="1.7494"/>
<path d="M186.948 -18.9116L265.967 60.107" stroke="#F6A16D" stroke-opacity="0.3" stroke-width="1.7494"/>
<path d="M193.533 -18.9116L272.552 60.107" stroke="#F6A16D" stroke-opacity="0.3" stroke-width="1.7494"/>
<path d="M200.118 -18.9116L279.137 60.107" stroke="#F6A16D" stroke-opacity="0.3" stroke-width="1.7494"/>
<path d="M206.703 -18.9116L285.721 60.107" stroke="#F6A16D" stroke-opacity="0.3" stroke-width="1.7494"/>
<path d="M213.288 -18.9116L292.307 60.107" stroke="#F6A16D" stroke-opacity="0.3" stroke-width="1.7494"/>
<path d="M219.873 -18.9116L298.891 60.107" stroke="#F6A16D" stroke-opacity="0.3" stroke-width="1.7494"/>
<path d="M226.458 -18.9116L305.476 60.107" stroke="#F6A16D" stroke-opacity="0.3" stroke-width="1.7494"/>
<path d="M233.042 -18.9116L312.061 60.107" stroke="#F6A16D" stroke-opacity="0.3" stroke-width="1.7494"/>
<path d="M239.627 -18.9116L318.646 60.107" stroke="#F6A16D" stroke-opacity="0.3" stroke-width="1.7494"/>
<path d="M246.212 -18.9116L325.231 60.107" stroke="#F6A16D" stroke-opacity="0.3" stroke-width="1.7494"/>
<path d="M252.797 -18.9116L331.816 60.107" stroke="#F6A16D" stroke-opacity="0.3" stroke-width="1.7494"/>
<path d="M259.382 -18.9116L338.4 60.107" stroke="#F6A16D" stroke-opacity="0.3" stroke-width="1.7494"/>
<path d="M265.967 -18.9116L344.986 60.107" stroke="#F6A16D" stroke-opacity="0.3" stroke-width="1.7494"/>
<path d="M272.552 -18.9116L351.57 60.107" stroke="#F6A16D" stroke-opacity="0.3" stroke-width="1.7494"/>
<path d="M279.136 -18.9116L358.155 60.107" stroke="#F6A16D" stroke-opacity="0.3" stroke-width="1.7494"/>
<path d="M285.721 -18.9116L364.74 60.107" stroke="#F6A16D" stroke-opacity="0.3" stroke-width="1.7494"/>
<path d="M292.306 -18.9116L371.325 60.107" stroke="#F6A16D" stroke-opacity="0.3" stroke-width="1.7494"/>
<path d="M298.891 -18.9116L377.91 60.107" stroke="#F6A16D" stroke-opacity="0.3" stroke-width="1.7494"/>
<path d="M305.476 -18.9116L384.495 60.107" stroke="#F6A16D" stroke-opacity="0.3" stroke-width="1.7494"/>
</g>
<g clip-path="url(#clip1_35_2189)">
<path d="M202.562 104.976V95.5748C202.562 94.452 201.653 93.5519 200.539 93.5519H198.196C197.313 93.5519 196.511 92.9816 196.262 92.1261C195.683 90.1567 194.898 88.2675 193.927 86.4941C193.499 85.7188 193.66 84.7475 194.284 84.1237L195.941 82.4662C196.734 81.6731 196.734 80.3899 195.941 79.5968L189.293 72.9489C188.5 72.1558 187.217 72.1558 186.424 72.9489L184.766 74.6064C184.142 75.2302 183.171 75.3906 182.396 74.9629C180.622 74.0004 178.733 73.2162 176.764 72.637C175.917 72.3875 175.338 71.5944 175.338 70.7033V68.3596C175.338 67.2367 174.429 66.3367 173.315 66.3367H163.914C162.791 66.3367 161.891 67.2457 161.891 68.3596V70.7033C161.891 71.5855 161.321 72.3875 160.465 72.637C158.496 73.2162 156.606 74.0004 154.833 74.9718C154.058 75.3995 153.086 75.2391 152.463 74.6153L150.805 72.9578C150.012 72.1647 148.729 72.1647 147.936 72.9578L141.288 79.6057C140.495 80.3988 140.495 81.682 141.288 82.4751L142.945 84.1326C143.569 84.7564 143.73 85.7278 143.302 86.503C142.339 88.2764 141.555 90.1656 140.967 92.135C140.718 92.9816 139.924 93.5608 139.033 93.5608H136.69C135.567 93.5608 134.667 94.4698 134.667 95.5837V104.985C134.667 106.108 135.576 107.008 136.69 107.008H139.033C139.916 107.008 140.718 107.578 140.967 108.434C141.546 110.403 142.33 112.292 143.293 114.066C143.721 114.841 143.56 115.812 142.936 116.436L141.279 118.094C140.486 118.887 140.486 120.17 141.279 120.963L147.927 127.611C148.72 128.404 150.003 128.404 150.796 127.611L152.454 125.954C153.078 125.33 154.049 125.169 154.824 125.597C156.598 126.559 158.487 127.344 160.456 127.932C161.303 128.181 161.882 128.974 161.882 129.866V132.209C161.882 133.332 162.791 134.232 163.905 134.232H173.306C174.429 134.232 175.329 133.323 175.329 132.209V129.866C175.329 128.983 175.899 128.181 176.755 127.932C178.724 127.353 180.614 126.568 182.387 125.597C183.162 125.169 184.134 125.33 184.757 125.954L186.415 127.611C187.208 128.404 188.491 128.404 189.284 127.611L195.932 120.963C196.725 120.17 196.725 118.887 195.932 118.094L194.275 116.436C193.651 115.812 193.49 114.841 193.918 114.066C194.881 112.292 195.665 110.403 196.253 108.434C196.502 107.587 197.296 107.008 198.187 107.008H200.53C201.653 107.008 202.553 106.099 202.553 104.985L202.562 104.976Z" stroke="white" stroke-width="3" stroke-linecap="round" stroke-linejoin="round"/>
<path d="M168.619 122.068C180.652 122.068 190.407 112.313 190.407 100.28C190.407 88.2467 180.652 78.4918 168.619 78.4918C156.585 78.4918 146.831 88.2467 146.831 100.28C146.831 112.313 156.585 122.068 168.619 122.068Z" stroke="white" stroke-width="3" stroke-linecap="round" stroke-linejoin="round"/>
<path d="M169.038 102.57C172.03 102.57 174.456 100.144 174.456 97.1521C174.456 94.1598 172.03 91.734 169.038 91.734C166.045 91.734 163.62 94.1598 163.62 97.1521C163.62 100.144 166.045 102.57 169.038 102.57Z" stroke="white" stroke-width="3" stroke-linejoin="round"/>
<path d="M165.981 102.57H172.094C174.857 102.57 177.111 104.816 177.111 107.587V110.332H160.964V107.587C160.964 104.825 163.21 102.57 165.981 102.57Z" stroke="white" stroke-width="3" stroke-linejoin="round"/>
</g>
<g clip-path="url(#clip2_35_2189)">
<path d="M170.046 157.288V151.093C170.046 150.353 169.447 149.76 168.713 149.76H167.168C166.587 149.76 166.058 149.384 165.894 148.82C165.512 147.522 164.995 146.277 164.355 145.109C164.073 144.598 164.179 143.958 164.59 143.546L165.683 142.454C166.205 141.931 166.205 141.086 165.683 140.563L161.302 136.182C160.779 135.66 159.933 135.66 159.411 136.182L158.318 137.275C157.907 137.686 157.267 137.791 156.756 137.509C155.588 136.875 154.343 136.358 153.045 135.977C152.487 135.812 152.105 135.29 152.105 134.702V133.158C152.105 132.418 151.506 131.825 150.772 131.825H144.576C143.836 131.825 143.243 132.424 143.243 133.158V134.702C143.243 135.284 142.867 135.812 142.304 135.977C141.006 136.358 139.761 136.875 138.592 137.515C138.081 137.797 137.441 137.691 137.03 137.28L135.938 136.188C135.415 135.665 134.569 135.665 134.047 136.188L129.666 140.569C129.143 141.092 129.143 141.937 129.666 142.46L130.758 143.552C131.169 143.963 131.275 144.604 130.993 145.114C130.359 146.283 129.842 147.528 129.454 148.826C129.29 149.384 128.767 149.766 128.18 149.766H126.636C125.896 149.766 125.302 150.365 125.302 151.099V157.294C125.302 158.034 125.901 158.627 126.636 158.627H128.18C128.761 158.627 129.29 159.003 129.454 159.567C129.836 160.865 130.353 162.11 130.987 163.278C131.269 163.789 131.163 164.429 130.752 164.841L129.66 165.933C129.137 166.456 129.137 167.301 129.66 167.824L134.041 172.205C134.564 172.727 135.409 172.727 135.932 172.205L137.024 171.113C137.435 170.701 138.075 170.596 138.586 170.878C139.755 171.512 141 172.029 142.298 172.416C142.856 172.581 143.237 173.103 143.237 173.691V175.235C143.237 175.975 143.836 176.568 144.571 176.568H150.766C151.506 176.568 152.099 175.969 152.099 175.235V173.691C152.099 173.109 152.475 172.581 153.039 172.416C154.337 172.035 155.582 171.518 156.75 170.878C157.261 170.596 157.901 170.701 158.312 171.113L159.405 172.205C159.927 172.727 160.773 172.727 161.296 172.205L165.677 167.824C166.199 167.301 166.199 166.456 165.677 165.933L164.584 164.841C164.173 164.429 164.068 163.789 164.349 163.278C164.984 162.11 165.501 160.865 165.888 159.567C166.053 159.009 166.575 158.627 167.162 158.627H168.707C169.447 158.627 170.04 158.028 170.04 157.294L170.046 157.288Z" stroke="white" stroke-width="1.97701" stroke-linecap="round" stroke-linejoin="round"/>
<path d="M147.677 168.552C155.607 168.552 162.036 162.124 162.036 154.194C162.036 146.264 155.607 139.835 147.677 139.835C139.747 139.835 133.319 146.264 133.319 154.194C133.319 162.124 139.747 168.552 147.677 168.552Z" stroke="white" stroke-width="1.97701" stroke-linecap="round" stroke-linejoin="round"/>
<path d="M147.953 155.703C149.925 155.703 151.524 154.104 151.524 152.132C151.524 150.16 149.925 148.562 147.953 148.562C145.981 148.562 144.383 150.16 144.383 152.132C144.383 154.104 145.981 155.703 147.953 155.703Z" stroke="white" stroke-width="1.97701" stroke-linejoin="round"/>
<path d="M145.939 155.703H149.967C151.788 155.703 153.274 157.183 153.274 159.009V160.818H142.633V159.009C142.633 157.189 144.112 155.703 145.939 155.703Z" stroke="white" stroke-width="1.97701" stroke-linejoin="round"/>
</g>
<g clip-path="url(#clip3_35_2189)">
<path d="M131.587 134.414V128.359C131.587 127.636 131.001 127.056 130.284 127.056H128.774C128.206 127.056 127.689 126.689 127.529 126.138C127.156 124.869 126.651 123.652 126.025 122.51C125.749 122.011 125.853 121.385 126.255 120.983L127.322 119.916C127.833 119.405 127.833 118.578 127.322 118.067L123.04 113.785C122.529 113.275 121.703 113.275 121.192 113.785L120.124 114.853C119.723 115.255 119.097 115.358 118.598 115.083C117.455 114.463 116.239 113.958 114.97 113.585C114.425 113.424 114.052 112.913 114.052 112.339V110.829C114.052 110.106 113.466 109.527 112.749 109.527H106.693C105.97 109.527 105.39 110.112 105.39 110.829V112.339C105.39 112.907 105.023 113.424 104.472 113.585C103.203 113.958 101.987 114.463 100.844 115.088C100.345 115.364 99.7194 115.261 99.3176 114.859L98.25 113.791C97.7392 113.28 96.9126 113.28 96.4018 113.791L92.1199 118.073C91.6091 118.584 91.6091 119.41 92.1199 119.921L93.1875 120.989C93.5893 121.391 93.6926 122.016 93.4171 122.516C92.7972 123.658 92.2921 124.875 91.9133 126.143C91.7526 126.689 91.2417 127.062 90.6677 127.062H89.1582C88.4349 127.062 87.8552 127.647 87.8552 128.365V134.42C87.8552 135.143 88.4407 135.723 89.1582 135.723H90.6677C91.236 135.723 91.7526 136.09 91.9133 136.641C92.2864 137.91 92.7915 139.127 93.4114 140.269C93.6869 140.768 93.5836 141.394 93.1818 141.796L92.1142 142.863C91.6033 143.374 91.6033 144.201 92.1142 144.712L96.3961 148.993C96.9069 149.504 97.7334 149.504 98.2443 148.993L99.3119 147.926C99.7137 147.524 100.339 147.421 100.839 147.696C101.981 148.316 103.198 148.821 104.466 149.2C105.012 149.361 105.385 149.872 105.385 150.446V151.955C105.385 152.678 105.97 153.258 106.688 153.258H112.743C113.466 153.258 114.046 152.673 114.046 151.955V150.446C114.046 149.877 114.413 149.361 114.964 149.2C116.233 148.827 117.45 148.322 118.592 147.696C119.091 147.421 119.717 147.524 120.119 147.926L121.186 148.993C121.697 149.504 122.524 149.504 123.035 148.993L127.316 144.712C127.827 144.201 127.827 143.374 127.316 142.863L126.249 141.796C125.847 141.394 125.744 140.768 126.019 140.269C126.639 139.127 127.144 137.91 127.523 136.641C127.684 136.096 128.195 135.723 128.769 135.723H130.278C131.001 135.723 131.581 135.138 131.581 134.42L131.587 134.414Z" stroke="white" stroke-width="1.93231" stroke-linecap="round" stroke-linejoin="round"/>
<path d="M109.724 145.423C117.474 145.423 123.758 139.14 123.758 131.389C123.758 123.639 117.474 117.356 109.724 117.356C101.973 117.356 95.6899 123.639 95.6899 131.389C95.6899 139.14 101.973 145.423 109.724 145.423Z" stroke="white" stroke-width="1.93231" stroke-linecap="round" stroke-linejoin="round"/>
<path d="M109.994 132.865C111.921 132.865 113.484 131.302 113.484 129.375C113.484 127.447 111.921 125.885 109.994 125.885C108.066 125.885 106.504 127.447 106.504 129.375C106.504 131.302 108.066 132.865 109.994 132.865Z" stroke="white" stroke-width="1.93231" stroke-linejoin="round"/>
<path d="M108.025 132.865H111.962C113.742 132.865 115.194 134.311 115.194 136.096V137.864H104.793V136.096C104.793 134.317 106.24 132.865 108.025 132.865Z" stroke="white" stroke-width="1.93231" stroke-linejoin="round"/>
</g>
<g clip-path="url(#clip4_35_2189)">
<path d="M216.696 157.259H209.852C206.724 157.259 204.184 154.719 204.184 151.591V139.178C204.184 136.05 206.724 133.51 209.852 133.51H256.244C259.381 133.51 261.912 136.05 261.912 139.178V151.591C261.912 154.719 259.381 157.259 256.244 157.259H249.4" stroke="white" stroke-width="3" stroke-linecap="round" stroke-linejoin="round"/>
<path d="M242.512 157.259H223.584" stroke="white" stroke-width="3" stroke-linecap="round" stroke-linejoin="round"/>
<path d="M261.921 146.467V177.113C261.921 180.723 258.989 183.654 255.38 183.654H210.725C207.116 183.654 204.184 180.723 204.184 177.113V146.467" stroke="white" stroke-width="3" stroke-linecap="round" stroke-linejoin="round"/>
<path d="M220.34 151.101H219.939C218.148 151.101 216.696 152.554 216.696 154.345V159.505C216.696 161.296 218.148 162.748 219.939 162.748H220.34C222.132 162.748 223.584 161.296 223.584 159.505V154.345C223.584 152.554 222.132 151.101 220.34 151.101Z" stroke="white" stroke-width="3" stroke-linecap="round" stroke-linejoin="round"/>
<path d="M246.165 151.101H245.764C243.973 151.101 242.521 152.554 242.521 154.345V159.505C242.521 161.296 243.973 162.748 245.764 162.748H246.165C247.957 162.748 249.409 161.296 249.409 159.505V154.345C249.409 152.554 247.957 151.101 246.165 151.101Z" stroke="white" stroke-width="3" stroke-linecap="round" stroke-linejoin="round"/>
<path d="M226.418 122.478H239.687C242.2 122.478 244.241 124.519 244.241 127.032V133.501H221.864V127.032C221.864 124.519 223.905 122.478 226.418 122.478Z" stroke="white" stroke-width="3" stroke-linecap="round" stroke-linejoin="round"/>
<path d="M204.184 174.44H261.921" stroke="white" stroke-width="3" stroke-linecap="round" stroke-linejoin="round"/>
</g>
</g>
<defs>
<clipPath id="clip0_35_2189">
<rect width="350" height="250" fill="white"/>
</clipPath>
<clipPath id="clip1_35_2189">
<rect width="70.5599" height="70.5599" fill="white" transform="translate(133.339 65)"/>
</clipPath>
<clipPath id="clip2_35_2189">
<rect width="46.4993" height="46.4993" fill="white" transform="translate(124.427 130.944)"/>
</clipPath>
<clipPath id="clip3_35_2189">
<rect width="45.4478" height="45.4478" fill="white" transform="translate(87 108.666)"/>
</clipPath>
<clipPath id="clip4_35_2189">
<rect width="60.4099" height="63.8586" fill="white" transform="translate(202.847 121.141)"/>
</clipPath>
</defs>
</svg>
