<svg width="350" height="250" viewBox="0 0 350 250" fill="none" xmlns="http://www.w3.org/2000/svg">
<g clip-path="url(#clip0_35_2336)">
<rect width="350" height="250" fill="#EFAD2B"/>
<circle cx="7.51055" cy="110.317" r="25.5164" fill="#FEC961" fill-opacity="0.3"/>
<circle cx="38.7886" cy="190.981" r="25.5164" fill="#FEC961" fill-opacity="0.3"/>
<circle cx="130.154" cy="145.71" r="9.87732" fill="#FEC961" fill-opacity="0.3"/>
<circle cx="314.531" cy="108.67" r="25.5164" fill="#FEC961" fill-opacity="0.3"/>
<circle cx="233.866" cy="125.956" r="11.5235" fill="#FEC961" fill-opacity="0.3"/>
<circle cx="350.835" cy="247.689" r="45.271" fill="#FEC961" fill-opacity="0.3"/>
<circle cx="14.2537" cy="253.205" r="16.7694" stroke="#FEC961" stroke-opacity="0.3" stroke-width="17.494"/>
<circle cx="198.472" cy="221.437" r="31.0694" stroke="#FEC961" stroke-opacity="0.3" stroke-width="34.9881"/>
<circle cx="-26.5693" cy="1.75321" r="31.0694" stroke="#FEC961" stroke-opacity="0.3" stroke-width="34.9881"/>
<mask id="mask0_35_2336" style="mask-type:alpha" maskUnits="userSpaceOnUse" x="93" y="20" width="77" height="78">
<circle cx="131.388" cy="58.8723" r="38.2746" fill="#F6A16D"/>
</mask>
<g mask="url(#mask0_35_2336)">
<path d="M19.8569 19.7746L98.8755 98.7931" stroke="#FEC961" stroke-opacity="0.3" stroke-width="1.7494"/>
<path d="M26.4419 19.7746L105.46 98.7931" stroke="#FEC961" stroke-opacity="0.3" stroke-width="1.7494"/>
<path d="M33.0266 19.7746L112.045 98.7931" stroke="#FEC961" stroke-opacity="0.3" stroke-width="1.7494"/>
<path d="M39.6118 19.7746L118.63 98.7931" stroke="#FEC961" stroke-opacity="0.3" stroke-width="1.7494"/>
<path d="M46.1965 19.7746L125.215 98.7931" stroke="#FEC961" stroke-opacity="0.3" stroke-width="1.7494"/>
<path d="M52.7815 19.7746L131.8 98.7931" stroke="#FEC961" stroke-opacity="0.3" stroke-width="1.7494"/>
<path d="M59.3662 19.7746L138.385 98.7931" stroke="#FEC961" stroke-opacity="0.3" stroke-width="1.7494"/>
<path d="M65.9512 19.7746L144.97 98.7931" stroke="#FEC961" stroke-opacity="0.3" stroke-width="1.7494"/>
<path d="M72.5361 19.7746L151.555 98.7931" stroke="#FEC961" stroke-opacity="0.3" stroke-width="1.7494"/>
<path d="M79.1208 19.7746L158.139 98.7931" stroke="#FEC961" stroke-opacity="0.3" stroke-width="1.7494"/>
<path d="M85.7058 19.7746L164.724 98.7931" stroke="#FEC961" stroke-opacity="0.3" stroke-width="1.7494"/>
<path d="M92.2908 19.7746L171.309 98.7931" stroke="#FEC961" stroke-opacity="0.3" stroke-width="1.7494"/>
<path d="M98.8757 19.7746L177.894 98.7931" stroke="#FEC961" stroke-opacity="0.3" stroke-width="1.7494"/>
<path d="M105.46 19.7746L184.479 98.7931" stroke="#FEC961" stroke-opacity="0.3" stroke-width="1.7494"/>
<path d="M112.045 19.7746L191.064 98.7931" stroke="#FEC961" stroke-opacity="0.3" stroke-width="1.7494"/>
<path d="M118.63 19.7746L197.649 98.7931" stroke="#FEC961" stroke-opacity="0.3" stroke-width="1.7494"/>
<path d="M125.215 19.7746L204.234 98.7931" stroke="#FEC961" stroke-opacity="0.3" stroke-width="1.7494"/>
<path d="M131.8 19.7746L210.819 98.7931" stroke="#FEC961" stroke-opacity="0.3" stroke-width="1.7494"/>
<path d="M138.385 19.7746L217.403 98.7931" stroke="#FEC961" stroke-opacity="0.3" stroke-width="1.7494"/>
<path d="M144.97 19.7746L223.988 98.7931" stroke="#FEC961" stroke-opacity="0.3" stroke-width="1.7494"/>
<path d="M151.555 19.7746L230.573 98.7931" stroke="#FEC961" stroke-opacity="0.3" stroke-width="1.7494"/>
</g>
<mask id="mask1_35_2336" style="mask-type:alpha" maskUnits="userSpaceOnUse" x="145" y="54" width="61" height="61">
<circle cx="175.836" cy="84.3887" r="30.0435" fill="#F6A16D" fill-opacity="0.7"/>
</mask>
<g mask="url(#mask1_35_2336)">
<path d="M88.2903 53.6991L150.316 115.724" stroke="#FEC961" stroke-opacity="0.3" stroke-width="1.7494"/>
<path d="M93.459 53.6991L155.484 115.724" stroke="#FEC961" stroke-opacity="0.3" stroke-width="1.7494"/>
<path d="M98.6282 53.6991L160.653 115.724" stroke="#FEC961" stroke-opacity="0.3" stroke-width="1.7494"/>
<path d="M103.797 53.6991L165.822 115.724" stroke="#FEC961" stroke-opacity="0.3" stroke-width="1.7494"/>
<path d="M108.965 53.6991L170.991 115.724" stroke="#FEC961" stroke-opacity="0.3" stroke-width="1.7494"/>
<path d="M114.134 53.6991L176.159 115.724" stroke="#FEC961" stroke-opacity="0.3" stroke-width="1.7494"/>
<path d="M119.303 53.6991L181.329 115.724" stroke="#FEC961" stroke-opacity="0.3" stroke-width="1.7494"/>
<path d="M124.472 53.6991L186.497 115.724" stroke="#FEC961" stroke-opacity="0.3" stroke-width="1.7494"/>
<path d="M129.641 53.6991L191.666 115.724" stroke="#FEC961" stroke-opacity="0.3" stroke-width="1.7494"/>
<path d="M134.809 53.6991L196.835 115.724" stroke="#FEC961" stroke-opacity="0.3" stroke-width="1.7494"/>
<path d="M139.978 53.6991L202.003 115.724" stroke="#FEC961" stroke-opacity="0.3" stroke-width="1.7494"/>
<path d="M145.147 53.6991L207.172 115.724" stroke="#FEC961" stroke-opacity="0.3" stroke-width="1.7494"/>
<path d="M150.316 53.6991L212.341 115.724" stroke="#FEC961" stroke-opacity="0.3" stroke-width="1.7494"/>
<path d="M155.484 53.6991L217.51 115.724" stroke="#FEC961" stroke-opacity="0.3" stroke-width="1.7494"/>
<path d="M160.653 53.6991L222.678 115.724" stroke="#FEC961" stroke-opacity="0.3" stroke-width="1.7494"/>
<path d="M165.822 53.6991L227.847 115.724" stroke="#FEC961" stroke-opacity="0.3" stroke-width="1.7494"/>
<path d="M170.991 53.6991L233.016 115.724" stroke="#FEC961" stroke-opacity="0.3" stroke-width="1.7494"/>
<path d="M176.16 53.6991L238.185 115.724" stroke="#FEC961" stroke-opacity="0.3" stroke-width="1.7494"/>
<path d="M181.328 53.6991L243.354 115.724" stroke="#FEC961" stroke-opacity="0.3" stroke-width="1.7494"/>
<path d="M186.497 53.6991L248.522 115.724" stroke="#FEC961" stroke-opacity="0.3" stroke-width="1.7494"/>
<path d="M191.666 53.6991L253.691 115.724" stroke="#FEC961" stroke-opacity="0.3" stroke-width="1.7494"/>
</g>
<mask id="mask2_35_2336" style="mask-type:alpha" maskUnits="userSpaceOnUse" x="327" y="165" width="61" height="61">
<circle cx="357.744" cy="195.509" r="30.0435" fill="#F6A16D"/>
</mask>
<g mask="url(#mask2_35_2336)">
<path d="M270.198 164.819L332.223 226.844" stroke="#FEC961" stroke-opacity="0.3" stroke-width="1.7494"/>
<path d="M275.366 164.819L337.392 226.844" stroke="#FEC961" stroke-opacity="0.3" stroke-width="1.7494"/>
<path d="M280.535 164.819L342.561 226.844" stroke="#FEC961" stroke-opacity="0.3" stroke-width="1.7494"/>
<path d="M285.704 164.819L347.729 226.844" stroke="#FEC961" stroke-opacity="0.3" stroke-width="1.7494"/>
<path d="M290.873 164.819L352.898 226.844" stroke="#FEC961" stroke-opacity="0.3" stroke-width="1.7494"/>
<path d="M296.042 164.819L358.067 226.844" stroke="#FEC961" stroke-opacity="0.3" stroke-width="1.7494"/>
<path d="M301.21 164.819L363.236 226.844" stroke="#FEC961" stroke-opacity="0.3" stroke-width="1.7494"/>
<path d="M306.379 164.819L368.404 226.844" stroke="#FEC961" stroke-opacity="0.3" stroke-width="1.7494"/>
<path d="M311.548 164.819L373.573 226.844" stroke="#FEC961" stroke-opacity="0.3" stroke-width="1.7494"/>
<path d="M316.717 164.819L378.742 226.844" stroke="#FEC961" stroke-opacity="0.3" stroke-width="1.7494"/>
<path d="M321.885 164.819L383.911 226.844" stroke="#FEC961" stroke-opacity="0.3" stroke-width="1.7494"/>
<path d="M327.054 164.819L389.08 226.844" stroke="#FEC961" stroke-opacity="0.3" stroke-width="1.7494"/>
<path d="M332.223 164.819L394.248 226.844" stroke="#FEC961" stroke-opacity="0.3" stroke-width="1.7494"/>
<path d="M337.392 164.819L399.417 226.844" stroke="#FEC961" stroke-opacity="0.3" stroke-width="1.7494"/>
<path d="M342.561 164.819L404.586 226.844" stroke="#FEC961" stroke-opacity="0.3" stroke-width="1.7494"/>
<path d="M347.729 164.819L409.755 226.844" stroke="#FEC961" stroke-opacity="0.3" stroke-width="1.7494"/>
</g>
<mask id="mask3_35_2336" style="mask-type:alpha" maskUnits="userSpaceOnUse" x="162" y="186" width="72" height="72">
<circle cx="198.06" cy="221.848" r="18.3112" stroke="#F6A16D" stroke-width="34.9881"/>
</mask>
<g mask="url(#mask3_35_2336)">
<path d="M95.5833 181.927L174.602 260.946" stroke="#FEC961" stroke-opacity="0.3" stroke-width="1.7494"/>
<path d="M102.168 181.927L181.187 260.946" stroke="#FEC961" stroke-opacity="0.3" stroke-width="1.7494"/>
<path d="M108.753 181.927L187.772 260.946" stroke="#FEC961" stroke-opacity="0.3" stroke-width="1.7494"/>
<path d="M115.338 181.927L194.356 260.946" stroke="#FEC961" stroke-opacity="0.3" stroke-width="1.7494"/>
<path d="M121.923 181.927L200.941 260.946" stroke="#FEC961" stroke-opacity="0.3" stroke-width="1.7494"/>
<path d="M128.508 181.927L207.526 260.946" stroke="#FEC961" stroke-opacity="0.3" stroke-width="1.7494"/>
<path d="M135.093 181.927L214.111 260.946" stroke="#FEC961" stroke-opacity="0.3" stroke-width="1.7494"/>
<path d="M141.677 181.927L220.696 260.946" stroke="#FEC961" stroke-opacity="0.3" stroke-width="1.7494"/>
<path d="M148.262 181.927L227.281 260.946" stroke="#FEC961" stroke-opacity="0.3" stroke-width="1.7494"/>
<path d="M154.847 181.927L233.866 260.946" stroke="#FEC961" stroke-opacity="0.3" stroke-width="1.7494"/>
<path d="M161.432 181.927L240.451 260.946" stroke="#FEC961" stroke-opacity="0.3" stroke-width="1.7494"/>
<path d="M168.017 181.927L247.035 260.946" stroke="#FEC961" stroke-opacity="0.3" stroke-width="1.7494"/>
<path d="M174.602 181.927L253.62 260.946" stroke="#FEC961" stroke-opacity="0.3" stroke-width="1.7494"/>
<path d="M181.187 181.927L260.205 260.946" stroke="#FEC961" stroke-opacity="0.3" stroke-width="1.7494"/>
<path d="M187.772 181.927L266.79 260.946" stroke="#FEC961" stroke-opacity="0.3" stroke-width="1.7494"/>
<path d="M194.356 181.927L273.375 260.946" stroke="#FEC961" stroke-opacity="0.3" stroke-width="1.7494"/>
<path d="M200.941 181.927L279.96 260.946" stroke="#FEC961" stroke-opacity="0.3" stroke-width="1.7494"/>
<path d="M207.526 181.927L286.545 260.946" stroke="#FEC961" stroke-opacity="0.3" stroke-width="1.7494"/>
<path d="M214.111 181.927L293.13 260.946" stroke="#FEC961" stroke-opacity="0.3" stroke-width="1.7494"/>
<path d="M220.696 181.927L299.714 260.946" stroke="#FEC961" stroke-opacity="0.3" stroke-width="1.7494"/>
</g>
<mask id="mask4_35_2336" style="mask-type:alpha" maskUnits="userSpaceOnUse" x="247" y="-15" width="72" height="72">
<circle cx="282.841" cy="21.0093" r="18.3112" stroke="#F6A16D" stroke-width="34.9881"/>
</mask>
<g mask="url(#mask4_35_2336)">
<path d="M180.364 -18.9116L259.382 60.107" stroke="#FEC961" stroke-opacity="0.3" stroke-width="1.7494"/>
<path d="M186.948 -18.9116L265.967 60.107" stroke="#FEC961" stroke-opacity="0.3" stroke-width="1.7494"/>
<path d="M193.533 -18.9116L272.552 60.107" stroke="#FEC961" stroke-opacity="0.3" stroke-width="1.7494"/>
<path d="M200.118 -18.9116L279.137 60.107" stroke="#FEC961" stroke-opacity="0.3" stroke-width="1.7494"/>
<path d="M206.703 -18.9116L285.721 60.107" stroke="#FEC961" stroke-opacity="0.3" stroke-width="1.7494"/>
<path d="M213.288 -18.9116L292.307 60.107" stroke="#FEC961" stroke-opacity="0.3" stroke-width="1.7494"/>
<path d="M219.873 -18.9116L298.891 60.107" stroke="#FEC961" stroke-opacity="0.3" stroke-width="1.7494"/>
<path d="M226.458 -18.9116L305.476 60.107" stroke="#FEC961" stroke-opacity="0.3" stroke-width="1.7494"/>
<path d="M233.042 -18.9116L312.061 60.107" stroke="#FEC961" stroke-opacity="0.3" stroke-width="1.7494"/>
<path d="M239.627 -18.9116L318.646 60.107" stroke="#FEC961" stroke-opacity="0.3" stroke-width="1.7494"/>
<path d="M246.212 -18.9116L325.231 60.107" stroke="#FEC961" stroke-opacity="0.3" stroke-width="1.7494"/>
<path d="M252.797 -18.9116L331.816 60.107" stroke="#FEC961" stroke-opacity="0.3" stroke-width="1.7494"/>
<path d="M259.382 -18.9116L338.4 60.107" stroke="#FEC961" stroke-opacity="0.3" stroke-width="1.7494"/>
<path d="M265.967 -18.9116L344.986 60.107" stroke="#FEC961" stroke-opacity="0.3" stroke-width="1.7494"/>
<path d="M272.552 -18.9116L351.57 60.107" stroke="#FEC961" stroke-opacity="0.3" stroke-width="1.7494"/>
<path d="M279.136 -18.9116L358.155 60.107" stroke="#FEC961" stroke-opacity="0.3" stroke-width="1.7494"/>
<path d="M285.721 -18.9116L364.74 60.107" stroke="#FEC961" stroke-opacity="0.3" stroke-width="1.7494"/>
<path d="M292.306 -18.9116L371.325 60.107" stroke="#FEC961" stroke-opacity="0.3" stroke-width="1.7494"/>
<path d="M298.891 -18.9116L377.91 60.107" stroke="#FEC961" stroke-opacity="0.3" stroke-width="1.7494"/>
<path d="M305.476 -18.9116L384.495 60.107" stroke="#FEC961" stroke-opacity="0.3" stroke-width="1.7494"/>
</g>
<g clip-path="url(#clip1_35_2336)">
<path d="M117.357 132.754H87.2073V181.902H117.357V132.754Z" stroke="white" stroke-width="6.24937" stroke-linecap="round" stroke-linejoin="round"/>
<path d="M165.906 112.806H135.757V181.923H165.906V112.806Z" stroke="white" stroke-width="6.24937" stroke-linecap="round" stroke-linejoin="round"/>
<path d="M214.456 124.783H184.306V181.923H214.456V124.783Z" stroke="white" stroke-width="6.24937" stroke-linecap="round" stroke-linejoin="round"/>
<path d="M262.984 104.814H232.834V181.902H262.984V104.814Z" stroke="white" stroke-width="6.24937" stroke-linecap="round" stroke-linejoin="round"/>
<path d="M76.0977 181.902H274.115" stroke="white" stroke-width="6.24937" stroke-linecap="round" stroke-linejoin="round"/>
<path d="M102.283 116.296C107.837 116.296 112.339 111.793 112.339 106.239C112.339 100.685 107.837 96.1822 102.283 96.1822C96.7284 96.1822 92.2258 100.685 92.2258 106.239C92.2258 111.793 96.7284 116.296 102.283 116.296Z" stroke="white" stroke-width="6.24937" stroke-linecap="round" stroke-linejoin="round"/>
<path d="M150.832 96.1822C156.386 96.1822 160.889 91.6797 160.889 86.1255C160.889 80.5712 156.386 76.0687 150.832 76.0687C145.278 76.0687 140.775 80.5712 140.775 86.1255C140.775 91.6797 145.278 96.1822 150.832 96.1822Z" stroke="white" stroke-width="6.24937" stroke-linecap="round" stroke-linejoin="round"/>
<path d="M199.381 108.16C204.935 108.16 209.438 103.657 209.438 98.1027C209.438 92.5485 204.935 88.046 199.381 88.046C193.827 88.046 189.324 92.5485 189.324 98.1027C189.324 103.657 193.827 108.16 199.381 108.16Z" stroke="white" stroke-width="6.24937" stroke-linecap="round" stroke-linejoin="round"/>
<path d="M247.91 88.2111C253.464 88.2111 257.967 83.7086 257.967 78.1544C257.967 72.6001 253.464 68.0976 247.91 68.0976C242.356 68.0976 237.853 72.6001 237.853 78.1544C237.853 83.7086 242.356 88.2111 247.91 88.2111Z" stroke="white" stroke-width="6.24937" stroke-linecap="round" stroke-linejoin="round"/>
<path d="M112.091 104.029L141.745 90.4001" stroke="white" stroke-width="6.24937" stroke-linecap="round" stroke-linejoin="round"/>
<path d="M160.703 88.046L189.366 97.2148" stroke="white" stroke-width="6.24937" stroke-linecap="round" stroke-linejoin="round"/>
<path d="M209.231 96.1823L238.534 81.7476" stroke="white" stroke-width="6.24937" stroke-linecap="round" stroke-linejoin="round"/>
</g>
</g>
<defs>
<clipPath id="clip0_35_2336">
<rect width="350" height="250" fill="white"/>
</clipPath>
<clipPath id="clip1_35_2336">
<rect width="204.213" height="120" fill="white" transform="translate(73 65)"/>
</clipPath>
</defs>
</svg>
